<svg
	xmlns="http://www.w3.org/2000/svg"
	id="LogoGoDataIjo"
	fill="#2b6a66"
	x="0"
	y="0"
	width="84px"
	height="84px"
	viewBox="0 0 84 85"
	preserveAspectRatio="none"
>
	<path
		fill-rule="evenodd"
		d="M40.208.072c-4.594.401-7.336.938-10.881 2.132C16.313 6.586 6.163 17.424 2.523 30.828c-.837 3.084-1.296 6.057-1.475 9.554L.966 42h10.771v-.72c0-2.68.83-7.111 1.87-9.98.698-1.927 2.134-4.77 3.298-6.532 3.08-4.659 7.12-8.243 12.023-10.668 6.805-3.364 13.971-4.1 21.37-2.191 6.205 1.6 12.182 5.517 16.209 10.622 1.263 1.602 2.623 3.792 3.56 5.734 3.325 6.887 4.051 14.139 2.166 21.627-1.58 6.28-5.452 12.33-10.496 16.404-2.409 1.946-5.889 3.917-8.802 4.985-2.703.99-5.94 1.649-8.897 1.807l-1.538.083v10.863l1.598-.084c4.279-.226 7.792-.88 11.575-2.154 13.014-4.382 23.164-15.22 26.804-28.625 1.045-3.847 1.447-6.927 1.451-11.11.005-4.919-.614-8.853-2.106-13.393-3.353-10.2-10.5-18.703-20.02-23.82-4.345-2.335-9.5-3.951-14.477-4.54C45.753.12 41.32-.025 40.209.072Zm-.965 16.84c-7.547.946-14.229 5.274-18.25 11.82-.848 1.38-1.916 3.681-2.418 5.21-.772 2.352-1.289 5.262-1.289 7.26V42h24.94l7.164-8.938c3.94-4.916 7.484-9.342 7.873-9.834.828-1.046.974-.77-1.191-2.244-4.894-3.33-10.985-4.805-16.83-4.072ZM54.06 30.799l-7.53 9.43 2.116.076c1.164.042 5.836.111 10.38.155 4.546.043 8.984.111 9.863.152l1.598.074v-1.109c0-3.594-1.228-7.991-3.186-11.405-1.313-2.288-3.373-4.822-5.133-6.313l-.578-.49-7.53 9.43Zm-2.17 12.293c-4.822.037-8.807.108-8.855.157-.064.065 4.669 19.066 5.76 23.129l.105.386.871-.246c1.3-.366 3.587-1.348 4.915-2.109 6.88-3.942 11.362-10.926 12.176-18.973.07-.695.128-1.533.128-1.862v-.597L63.823 43l-11.933.092Zm-27.144.49c-3.893.037-7.12.11-7.172.162-.052.052-.028.821.052 1.709.677 7.493 4.54 14.06 10.654 18.118 2.179 1.446 5.181 2.754 7.67 3.341 2.517.595 5.88.767 8.36.427 1.359-.186 2.868-.486 2.972-.592.036-.035-1.284-5.288-2.932-11.673l-2.996-11.608-4.765.025c-2.621.014-7.95.055-11.843.091Zm-18.93 2.542c-.29.262-.39.472-.44.913-.059.53-.033.604.362 1.003.36.364.508.43.964.43.972 0 1.58-.794 1.31-1.709-.288-.97-1.454-1.308-2.196-.637Zm2.671 8.308c-1.1.597-1.111 2.313-.019 2.885 1.424.745 3.003-.863 2.184-2.224-.493-.818-1.378-1.088-2.165-.66Zm4.851 7.832c-.827.199-1.526.889-1.784 1.76-.717 2.43 2.24 4.297 4.074 2.574 1.445-1.357.835-3.836-1.064-4.32-.579-.147-.667-.148-1.226-.014Zm7.054 6.526a3.203 3.203 0 0 0-1.974 2.113c-.212.713-.21 1.063.012 1.817.613 2.092 3.186 2.928 4.91 1.597 1.932-1.49 1.432-4.727-.85-5.514-.659-.227-1.49-.232-2.098-.013Zm10.07 5.126c-.937.31-1.623.933-2.164 1.965-.44.837-.46 2.147-.047 3.08 1.027 2.324 4.08 2.899 5.888 1.108.736-.73 1.056-1.537 1.055-2.662 0-.703-.064-1.049-.275-1.489-.361-.751-1.047-1.454-1.762-1.804-.712-.35-1.959-.44-2.694-.198Z"
		clip-rule="evenodd"
	/>
</svg>
