<svg width="674" height="578" viewBox="0 0 674 578" fill="none" xmlns="http://www.w3.org/2000/svg">
<path fill-rule="evenodd" clip-rule="evenodd" d="M482.496 118.966C543.091 123.097 593.41 155.499 612.877 210.123C632.345 264.746 609.998 335.175 597.221 365.373C584.443 395.571 562.628 420.143 537.786 439.675C491.645 475.951 434.951 497.184 375.843 499.947C316.735 502.708 256.073 488.458 200.651 461.018C169.561 445.625 74.3142 387.631 69.2921 298.819C64.2702 210.007 64.804 135.574 117.73 121.427C170.656 107.28 198.922 138.698 220.098 156.369C319.029 238.925 421.902 114.837 482.496 118.966Z" fill="#DB675A"/>
<path fill-rule="evenodd" clip-rule="evenodd" d="M548.269 220.792C557.7 222.875 567.603 226.412 574.01 234.386C580.417 242.361 581.317 255.854 573.633 261.2C581.237 260.475 588.497 267.855 590.594 275.892C592.693 283.928 590.81 292.215 588.164 299.687C581.613 318.19 570.3 334.443 555.702 346.327C554.845 347.787 553.987 349.249 553.13 350.71C565.939 358.496 614.49 396.118 589.411 444.678C564.333 493.239 497.781 494.322 490.099 498.705C476.708 506.345 459.549 501.909 444.303 496.715C406.816 483.944 370.21 467.45 335.142 447.528C332.161 445.833 328.286 444.173 325.916 446.395C308.762 462.474 281.073 455.928 258.255 447.108C228.946 435.779 200.311 422.03 172.709 406.034C157.053 396.96 140.7 385.989 133.297 368.796C124.667 348.753 130.677 326.449 136.797 306.529C128.001 308.696 114.45 307.188 96.1441 302.005C85.8783 296.443 80.0115 290.336 78.5443 283.685C71.8354 253.267 74.679 217.578 95.1695 195.868C97.631 193.261 100.363 190.784 103.732 189.675C107.303 188.499 111.271 188.965 115.07 189.758C130.056 192.887 144.417 201.079 155.511 212.828C164.176 169.687 172.843 126.546 181.508 83.4042C182.005 80.9334 182.571 78.324 184.257 76.6199C186.694 74.1558 190.618 74.359 194.112 74.7293C225.891 78.0987 257.623 83.5138 289.073 90.9364C299.348 93.3616 312.624 100.544 310.508 111.17C302.409 151.865 294.308 192.56 286.208 233.255C284.28 242.941 285.039 242.313 289.949 240.835C287.162 240.298 288.754 235.652 291.205 234.4C300.351 229.729 311.648 232.903 321.86 236.136C344.705 243.369 367.551 250.602 390.395 257.835C412.53 264.843 438.534 275.901 444.369 299.628C445.328 293.398 451.836 289.23 457.71 291.083C464.117 293.104 470.67 288.926 473.849 283.084C477.029 277.243 477.606 270.1 478.117 263.196C469.899 249.569 470.814 230.947 480.253 219.695C489.693 208.444 506.86 205.514 520.354 212.853C529.07 217.593 538.839 218.708 548.269 220.792ZM242.007 339.058C239.96 347.522 237.872 356.095 233.794 363.543L242.007 339.058ZM253.909 231.153C255.908 232.455 258.142 235.233 256.615 236.894C265.676 240.686 263.003 239.395 265.74 228.128C268.517 216.694 271.156 203.921 265.692 192.958C260.856 183.257 250.892 177.644 241.304 173.792C230.112 169.296 218.491 166.268 206.806 164.803C201.104 164.088 194.802 163.93 190.633 167.736C188.301 169.868 186.97 172.972 185.789 176.028C181.145 188.05 177.872 200.759 176.056 213.811C202.138 209.522 230.352 215.806 253.909 231.153ZM442.57 378.967C443.275 378.531 444.184 378.651 445.026 378.783C448.382 379.309 451.739 379.837 455.096 380.363C448.33 374.548 445.502 364.775 445.869 355.9C446.237 347.026 449.323 338.779 452.383 330.723C446.463 334.827 445.098 343.329 444.206 350.975C442.257 367.706 441.866 379.402 442.57 378.967ZM364.627 440.526C365.712 438.542 368.135 438.039 370.049 436.974C373.496 435.059 375.425 431.162 377.175 427.463C383.225 414.682 389.328 401.74 392.175 387.545C392.778 384.538 393.26 381.407 394.791 378.863C396.321 376.319 399.229 374.483 402.108 375.346C405.144 376.256 406.764 372.083 407.135 368.845C408.417 357.68 409.698 346.514 410.978 335.348C411.387 331.782 411.797 328.182 411.465 324.548C410.236 311.112 397.367 299.286 384.855 300.099C383.324 300.198 382.562 301.959 382.08 303.48C376.746 320.337 371.414 337.195 366.08 354.053C365.132 357.047 368.553 360.187 371.594 360.302C374.636 360.417 377.318 358.735 380.159 357.799C383 356.864 386.716 356.961 388.602 359.646C390.735 362.682 395.075 361.357 397.857 359.43C400.638 357.502 404.209 355.245 407.186 357.312C402.671 359.916 398.154 362.52 393.639 365.123C392.141 365.988 390.538 368.136 391.96 369.349C396.598 369.068 401.065 367.459 404.777 364.733C406.16 365.107 405.766 367.38 404.756 368.338C400.953 371.947 393.95 370.871 391.162 375.429C384.655 386.067 370.304 390.072 358.758 384.472C356.389 383.323 354.482 386.317 353.663 388.799C350.398 398.695 347.134 408.592 343.87 418.488C343.119 420.765 342.359 423.183 342.846 425.635C343.661 429.727 347.533 432.363 351.014 434.46C355.614 437.231 360.271 440.027 365.127 442.106C367.172 442.982 367.327 442.177 364.627 440.526ZM174.699 362.583C181.153 367.135 188.34 370.204 195.464 373.237C198.484 374.523 201.713 375.835 204.784 375.214C208.399 374.484 210.9 371.272 213.022 368.172C224.857 350.882 233.63 331.116 238.804 310.079C239.54 307.091 236.103 304.623 233.252 303.537C210.491 294.87 186.249 298.733 163.228 302.704C162.124 302.894 160.937 303.133 160.23 304.018C159.704 304.679 159.539 305.589 159.39 306.461C157.369 318.338 155.361 330.666 158.253 342.732C159.033 345.99 160.206 349.254 162.272 351.888C163.523 353.484 165.06 354.795 166.584 356.091C169.23 358.343 171.882 360.596 174.699 362.583ZM332.94 364.642C339.539 348.292 345.266 331.488 350.085 314.332C351.734 308.462 353.289 302.458 353.244 296.205C353.198 289.951 351.366 283.325 347.113 278.664C344.493 275.792 341.139 273.839 337.777 272.121C331.643 268.987 325.266 266.468 318.767 264.612C313.032 262.973 306.886 261.87 301.519 263.895C299.744 264.565 298.038 265.63 297.091 267.343C296.144 269.055 296.146 271.515 297.486 273.099C300.871 277.105 301.418 282.831 301.155 287.987C300.892 293.141 300.019 298.357 301.262 303.469C301.903 306.105 303.085 308.595 304.367 310.998C311.317 324.026 321.562 335.222 333.627 342.971C335.747 344.333 338.323 346.666 337.357 348.922C343.507 355.77 332.687 365.27 332.94 364.642ZM302.979 409.663C305.932 408.801 308.268 406.58 310.389 404.307C319.389 394.664 326.393 382.918 330.851 370.001C307.05 362.616 285.28 345.999 270.731 324.108C269.595 326.489 269.165 329.212 268.711 331.883C265.87 348.552 261.559 364.827 255.851 380.43C254.49 384.15 255.924 388.722 258.517 391.956C261.109 395.188 264.678 397.327 268.229 399.202C276.233 403.428 284.62 406.72 293.178 408.992C296.433 409.857 299.86 410.573 302.979 409.663ZM482.319 313.135C481.643 309.215 481.403 304.956 478.99 301.782C476.577 298.607 470.923 298.074 469.983 301.803C472.947 302.125 474.377 306.466 473.283 309.304C472.189 312.141 469.628 313.88 467.47 315.866C464.489 318.609 462.135 322.028 459.805 325.418C454.262 333.484 450.765 343.202 449.733 353.405C449.126 359.412 449.435 365.868 452.326 371.358C455.217 376.847 461.244 380.991 466.77 379.794C471.516 378.765 474.694 374.275 476.677 369.645C478.661 365.014 479.887 359.908 482.683 355.824C487.844 348.291 497.319 345.68 506.31 344.97C494.151 339.371 484.679 326.803 482.319 313.135ZM445.81 311.844C445.908 314.262 446.234 316.687 446.778 319.073C447.96 316.306 449.479 313.724 451.288 311.404C450.046 310.864 448.779 310.4 447.496 310.017C447.184 309.924 446.853 309.835 446.555 309.929C445.883 310.141 445.778 311.082 445.81 311.844ZM295.375 263.469C294.451 263.891 293.698 265.177 294.408 266.032C295.954 265.088 297.5 264.144 299.046 263.2C298.852 262.779 298.517 262.423 298.121 262.219C297.429 262.98 296.297 263.048 295.375 263.469Z" fill="#FBF4F1"/>
<path d="M518.012 321.282C520.735 322.113 523.411 320.481 523.991 317.637C524.57 314.793 522.833 311.814 520.11 310.983C517.387 310.152 514.711 311.784 514.131 314.628C513.552 317.472 515.289 320.451 518.012 321.282Z" fill="#2B6A66"/>
<path d="M490.828 307.515C492.313 307.968 493.773 307.078 494.089 305.527C494.405 303.976 493.457 302.351 491.972 301.898C490.487 301.444 489.027 302.334 488.711 303.886C488.395 305.437 489.342 307.062 490.828 307.515Z" fill="#2B6A66"/>
<path fill-rule="evenodd" clip-rule="evenodd" d="M251.261 155.91C259.317 158.425 267.373 160.941 275.429 163.456C275.806 163.574 276.209 163.709 276.466 164.035C276.991 164.703 276.515 165.745 275.783 165.999C275.051 166.253 274.224 165.98 273.459 165.717C266.412 163.293 259.214 161.505 251.97 160.379C250.869 160.208 249.706 160.026 248.792 159.297C247.878 158.566 247.367 157.081 248.036 156.201C248.734 155.281 250.134 155.558 251.261 155.91ZM224.455 146.849C224.858 147.537 224.414 148.439 223.752 148.731C223.089 149.023 222.31 148.884 221.575 148.74C214.271 147.314 206.965 145.888 199.659 144.461C198.795 144.293 197.903 144.112 197.15 143.593C196.396 143.074 195.813 142.12 195.974 141.226C196.141 140.305 197.044 139.754 197.935 139.715C198.825 139.677 199.712 140.034 200.571 140.373C207.777 143.212 215.245 145.123 222.754 146.049C223.382 146.126 224.112 146.262 224.455 146.849ZM226.374 132.204C226.817 132.817 226.43 133.724 225.802 134.009C225.174 134.294 224.43 134.145 223.734 133.992L200.382 128.875C199.508 128.684 198.604 128.479 197.855 127.925C197.106 127.37 196.556 126.364 196.786 125.479C197.018 124.582 197.968 124.121 198.861 124.165C199.754 124.209 200.611 124.641 201.447 125.039C208.997 128.621 217.147 129.943 225.146 131.593C225.594 131.685 226.089 131.808 226.374 132.204ZM259.416 137.24C264.079 139.343 268.917 140.923 273.82 141.945C275.769 142.351 278.098 142.973 278.849 144.959C277.336 145.654 275.532 145.268 273.854 144.872C268.293 143.558 262.732 142.244 257.171 140.931C255.902 140.631 254.363 140.055 254.09 138.704C253.845 137.491 254.923 136.451 256.057 136.336C257.191 136.221 258.33 136.751 259.416 137.24ZM219.265 118.477C219.095 119.344 217.98 119.4 217.134 119.276L204.698 117.441C203.811 117.311 202.894 117.169 202.102 116.678C201.309 116.187 200.665 115.249 200.771 114.319C200.9 113.182 202.087 112.551 203.175 112.627C204.264 112.703 205.29 113.284 206.317 113.749C209.861 115.351 213.706 115.636 217.403 116.625C218.308 116.867 219.45 117.536 219.265 118.477ZM278.072 133.223C278.983 133.616 279.822 134.49 279.88 135.512C277.956 136.316 275.717 135.885 273.608 135.445C269.998 134.692 266.389 133.939 262.779 133.185C261.508 132.92 260.237 132.655 258.965 132.389C258.035 132.195 257.07 131.985 256.282 131.385C255.494 130.786 254.943 129.674 255.263 128.765C255.769 127.333 257.723 127.518 259.16 127.991C264.491 129.746 269.741 132.246 275.218 132.721C276.178 132.804 277.162 132.829 278.072 133.223ZM285.653 120.533C258.65 116.218 232.127 106.09 205.047 104.036C203.441 103.914 201.294 103.278 201.221 101.569C201.638 99.7092 204.091 99.7411 205.905 100.154C231.472 105.964 257.038 111.775 282.605 117.586C284.105 117.926 286.084 119.027 285.653 120.533Z" fill="#2B6A66"/>
<path fill-rule="evenodd" clip-rule="evenodd" d="M135.428 376.571C135.027 379.972 130.42 379.759 127.23 378.799C110.649 373.811 93.4454 371.97 76.7081 373.39C74.1535 373.607 71.3833 374.017 69.7543 376.018C67.5964 378.667 68.4473 383.16 70.7191 386.057C72.9915 388.955 76.3017 390.638 79.492 392.208C162.406 433.033 248.269 466.042 335.659 490.691L337.065 491.085C347.148 493.906 357.503 496.468 367.541 495.124C361.066 487.229 354.591 479.336 348.115 471.442C361.849 472.714 375.043 478.82 388.13 484.28C418.084 496.774 448.961 506.267 480.186 512.582C477.298 515.521 472.459 514.574 468.379 513.425C429.701 502.539 391.442 489.344 353.851 473.925C358.154 478.891 362.456 483.858 366.759 488.824C368.319 490.623 370.002 492.818 369.645 495.114C369.11 498.566 364.761 499.041 361.43 498.615C350.376 497.198 339.453 494.177 328.598 491.038C243.815 466.532 160.476 434.384 79.8087 395.071C75.8725 393.152 71.8053 391.11 68.906 387.63C66.0069 384.148 64.6382 378.794 66.8884 375.188C69.1271 371.6 73.8316 371.032 78.0024 370.892C97.0888 370.25 116.429 372.162 135.428 376.571ZM310.507 111.17C302.407 151.865 294.306 192.559 286.207 233.254C284.279 242.94 283.61 255.737 292.064 260.934C305.653 258.744 320.082 260.644 333.303 266.366C340.872 269.64 348.425 274.546 352.447 282.179C357.962 292.647 355.437 305.108 352.392 316.022C346.222 338.146 338.555 359.691 329.468 380.445C333.152 381.315 336.55 383.97 338.492 387.497C334.259 388.162 329.648 386.837 326.084 383.93C325.673 399.965 310.75 411.353 295.651 411.373C280.553 411.395 265.969 402.578 253.965 391.829C251.672 396.544 257.592 401.532 262.42 403.822C274.676 409.639 286.931 415.455 299.187 421.27C283.46 416.991 268.054 410.869 253.348 403.056C249.67 406.373 255.21 412.547 259.879 414.84C272.262 420.923 284.647 427.005 297.031 433.088C282.565 428.565 268.29 423.137 254.308 416.841C261.694 428.242 273.226 436.68 285.653 439.775C278.233 440.04 270.559 437.546 264.248 432.817C270.374 447.417 287.451 454.987 301.617 452.191C315.782 449.395 326.934 438.231 333.942 425.145C340.951 412.058 344.433 397.03 348.201 382.312C355.153 355.146 363.318 328.389 373.478 302.617C380.321 285.262 392.415 265.77 410.569 268.563C379.474 257.466 348.208 247.057 316.796 237.343C307.251 234.392 295.053 232.402 289.947 240.834C287.16 240.297 288.752 235.651 291.203 234.399C300.35 229.729 311.646 232.902 321.859 236.136L390.394 257.835C412.528 264.842 438.533 275.901 444.368 299.628C445.326 293.398 451.835 289.23 457.709 291.083C464.115 293.104 470.669 288.926 473.848 283.084C477.027 277.243 477.604 270.1 478.115 263.195C469.897 249.568 470.812 230.946 480.252 219.695C482.922 216.512 487.563 208.397 504.447 207.416C515.703 206.762 525.968 210.344 535.242 218.165C555.246 220.148 568.167 225.556 574.009 234.386C582.77 247.633 581.316 255.854 573.633 261.199C581.235 260.475 588.496 267.855 590.593 275.892C592.691 283.928 590.808 292.214 588.163 299.686C581.611 318.19 570.299 334.443 555.7 346.326L553.128 350.709C579.345 366.645 596.568 399.102 595.228 430.049C590.428 405.522 582.627 378.718 562.689 364.445C556.752 368.281 550.631 372.307 546.936 378.562C543.242 384.817 542.685 393.974 547.611 399.926C543.802 399.696 539.993 399.467 536.184 399.239C536.936 401.846 537.689 404.453 538.441 407.06C522.507 413.766 516.732 433.886 513.15 451.909C509.568 469.932 505.121 490.133 490.097 498.704C476.706 506.345 459.547 501.909 444.302 496.714C406.814 483.944 370.208 467.449 335.141 447.528C332.16 445.833 328.285 444.173 325.915 446.395C308.761 462.474 281.072 455.927 258.254 447.108C228.944 435.779 200.31 422.03 172.708 406.033C157.052 396.96 140.699 385.989 133.296 368.796C124.666 348.752 130.676 326.449 136.796 306.528C123.601 309.78 109.072 308.163 96.1432 302.005C112.176 296.689 122.747 280.383 126.452 262.857C130.158 245.332 128.013 226.592 125.089 208.377C109.632 212.513 98.8143 227.875 96.5155 244.781C94.2159 261.685 99.5022 279.641 108.417 294.785C96.3599 281.355 90.5136 262.003 93.2503 244.587C95.9873 227.171 107.233 212.167 122.422 205.663C121.854 197.576 111.278 193.381 104.608 196.715C97.939 200.048 94.4979 207.713 91.4962 214.885C85.9504 228.134 80.3265 241.709 79.3825 256.502C78.4384 271.296 83.0525 287.8 94.4648 297.386C87.6833 300.019 81.1491 291.255 78.5431 283.684C67.9751 252.982 74.6778 217.577 95.1683 195.868C97.6297 193.26 100.361 190.784 103.731 189.675C107.302 188.499 111.27 188.965 115.069 189.758C130.055 192.887 144.415 201.079 155.51 212.828C164.175 169.687 172.842 126.545 181.507 83.4039C182.004 80.9332 182.57 78.3235 184.255 76.6194C186.693 74.1553 190.616 74.3585 194.11 74.7288C225.89 78.0984 257.622 83.5136 289.071 90.9359C299.347 93.3614 312.623 100.544 310.507 111.17ZM291.879 94.5515C258.648 86.1269 225 80.3695 191.327 77.346C189.894 77.2168 188.37 77.1127 187.163 77.835C185.517 78.8193 184.96 81.0053 184.536 82.9939C175.409 125.8 166.829 168.777 158.799 211.912C162.959 212.089 167.12 212.266 171.279 212.443C171.529 203.165 171.796 193.766 174.275 185.04C176.752 176.316 181.737 168.194 189.389 164.267C197.67 160.017 207.78 161.187 217.172 163.333C226.204 165.396 235.126 168.281 243.806 171.942C252.667 175.679 261.782 180.694 266.968 189.312C274.46 201.763 271.456 217.312 268.17 230.893C259.449 266.949 250.727 303.004 242.007 339.058C239.959 347.522 237.87 356.095 233.793 363.542C229.716 370.99 223.346 377.307 215.289 379.114C207.382 380.886 198.904 378.18 191.105 374.792C183.66 371.557 176.425 367.67 169.503 363.187C165.298 360.463 161.148 357.462 157.913 353.485C147.209 340.325 149.505 321.284 152.482 305.07C147.829 302.681 142.316 305.084 139.363 309.166C136.41 313.249 135.412 318.608 134.491 323.78C132.192 336.68 129.931 350.272 133.946 363.199C140.141 383.144 159.145 395.615 176.837 405.326C208.24 422.563 240.656 437.447 273.743 449.821C260.403 437.296 249.913 419.624 250.266 401.437C250.362 396.496 251.246 391.678 252.126 386.887C269.348 293.219 286.569 199.552 303.791 105.883C304.88 99.9598 297.568 95.9938 291.879 94.5515ZM388.277 286.39C387.013 288.256 385.929 290.423 386.031 292.81C386.134 295.196 387.802 297.761 390.042 298.045C400.077 299.317 409.509 307.492 412.849 317.813C415.604 326.329 414.391 335.348 413.145 343.946L401.797 422.269C400.585 430.639 398.969 439.764 392.756 444.733C384.696 451.182 372.711 447.82 362.734 443.669C354.501 440.244 345.953 436.084 340.567 428.49C340.134 431.821 338.545 434.879 336.165 436.96C333.227 439.529 336.022 444.942 339.278 447.575C343.253 450.79 347.861 452.894 352.412 454.956C373.251 464.403 394.125 473.751 415.033 482.999C431.126 490.116 447.496 497.249 464.483 499.473C454.715 493.258 445.734 485.519 437.948 476.608C434.064 472.161 430.417 467.324 428.281 461.771C424.795 452.706 425.686 442.814 426.711 433.423C429.76 405.497 433.457 377.702 437.798 350.07C440.999 329.69 438.864 307.981 431.686 287.935C430.403 284.35 428.719 280.524 425.538 278.664C412.891 271.269 396.173 274.737 388.277 286.39ZM291.737 441.747C292.826 442.293 293.932 442.911 294.722 443.894C295.511 444.876 295.908 446.314 295.385 447.386C294.862 448.458 293.242 448.773 292.461 447.784C291.598 446.692 290.245 446.251 289.1 445.519C287.957 444.788 286.895 443.343 287.379 442.108C287.993 440.543 290.213 440.984 291.737 441.747ZM244.708 427.913C246.048 428.645 247.478 430.191 246.891 431.569C246.375 432.785 244.757 432.748 243.469 432.54C242.026 432.307 240.491 432.032 239.348 430.999C238.205 429.965 237.749 427.894 238.827 426.957C239.555 426.323 240.654 426.431 241.617 426.682C242.68 426.959 243.721 427.373 244.708 427.913ZM331.927 437.231C330.392 437.827 329.177 439.026 327.951 440.145C322.364 445.246 315.804 449.159 308.707 451.623C308.722 452.359 309.745 452.486 310.402 452.31C318.476 450.154 325.071 444.532 331.418 439.045C331.937 438.596 332.464 437.741 331.927 437.231ZM431.463 283.747C434.334 289.648 437.226 295.604 438.92 301.922C440.755 308.773 441.128 315.857 441.167 322.841C441.383 361.917 431.553 399.472 428.957 438.227C428.489 445.22 428.282 452.445 430.445 459.28C432.978 467.287 438.523 473.995 444.357 479.919C449.075 484.711 454.106 489.19 459.614 492.856C468.371 498.685 479.575 502.327 488.168 497.569C492.992 494.897 496.246 489.978 499.017 485.01C510.892 463.718 516.867 438.452 516.083 412.843C513.315 427.172 512.189 441.964 508.874 456.119C505.56 470.274 499.759 484.121 489.369 493.227C487.311 495.031 485.019 496.665 482.348 497.233C478.831 497.98 475.074 496.798 471.624 495.266C465.598 492.588 459.948 488.789 455.024 484.107C451.284 480.549 447.977 476.505 444.819 472.361C441.147 467.545 437.61 462.485 435.512 456.778C433.434 451.121 432.864 445.08 432.644 439.149C431.035 395.84 446.911 354.5 443.361 311.168C442.524 300.956 439.804 289.443 431.463 283.747ZM161.099 389.59C183.021 400.164 204.944 410.736 226.867 421.31C225.974 422.701 223.89 422.123 222.344 421.415C203.509 412.794 184.675 404.172 165.841 395.549C163.712 394.575 161.583 393.6 159.453 392.626C158.442 392.163 157.231 391.375 157.321 390.248C157.447 388.659 159.685 388.909 161.099 389.59ZM452.382 330.723C446.461 334.826 445.096 343.329 444.205 350.974C442.255 367.706 440.306 384.439 438.355 401.171C438.264 401.955 438.178 402.783 438.48 403.536C438.974 404.766 440.294 405.357 441.473 405.81C457.525 411.984 473.577 418.157 489.629 424.332C488.001 425.972 485.248 425.163 483.013 424.286C467.923 418.367 452.6 413.263 437.129 409.006C435.185 417.165 434.66 425.807 435.586 434.389C435.987 438.11 440.041 440.113 443.43 441.301C456.353 445.831 469.276 450.36 482.199 454.891C482.511 456.485 480.226 456.723 478.751 456.254C465.386 452.003 452.02 447.753 438.654 443.502C436.823 442.92 435.606 445.434 435.936 447.42C436.799 452.612 442.349 455.369 447.073 457.143L476.63 468.246C477.305 468.499 477.218 469.665 476.619 470.002C476.02 470.341 475.257 470.122 474.575 469.898L439.659 458.415C446.432 472.457 457.52 484.35 470.663 491.671C473.495 493.248 476.553 494.65 479.64 494.536C483.334 494.399 486.503 492.115 489.142 489.548C503.139 475.932 506.85 454.05 509.864 433.615L513.281 410.455C513.833 409.971 514.755 410.026 515.326 410.578C515.801 409.537 514.545 408.448 513.508 407.912C490.599 396.062 467.069 384.013 442.3 381.198C441.604 380.639 441.865 379.402 442.569 378.966C443.274 378.531 444.183 378.651 445.024 378.783C448.381 379.309 451.738 379.837 455.094 380.363C448.329 374.548 445.501 364.775 445.869 355.9C446.236 347.026 449.321 338.779 452.382 330.723ZM306.998 433.487C309.038 434.548 311.352 435.974 311.756 438.311C309.049 439.272 305.98 438.152 303.176 437.044C302.405 436.739 301.568 436.377 301.136 435.622C300.373 434.286 301.49 432.594 302.873 432.346C304.257 432.099 305.684 432.804 306.998 433.487ZM148.378 368.904C171.167 384.373 195.442 397.165 220.564 406.943C222.513 407.702 224.974 409.5 224.18 411.42C197.831 399.99 171.957 387.086 146.711 372.783C145.1 371.871 143.185 369.95 144.159 368.454C145.015 367.141 147.022 367.984 148.378 368.904ZM235.307 408.577C236.554 408.955 237.667 409.769 238.738 410.588C239.283 411.004 239.874 411.507 239.978 412.194C240.2 413.66 238.27 414.071 236.889 413.917C235.959 413.814 235.029 413.71 234.099 413.606C233.315 413.519 232.474 413.407 231.848 412.854C230.831 411.957 230.885 410.166 231.76 409.25C232.633 408.335 234.058 408.2 235.307 408.577ZM350.877 440.866C361.242 446.309 372.283 449.808 383.255 453.279C384.104 453.547 384.048 455.016 383.314 455.452C382.58 455.889 381.626 455.627 380.778 455.349C370.556 452.006 360.51 447.739 350.103 445.457C348.97 445.209 347.791 444.966 346.828 444.237C345.865 443.508 345.198 442.131 345.631 441.044C346.004 440.105 347.069 439.694 348.054 439.791C349.038 439.888 349.969 440.389 350.877 440.866ZM411.308 271.426C398.689 269.601 386.097 277.835 382.359 290.358C378.867 302.055 373.312 312.77 368.642 323.911C353.647 359.69 347.829 399.737 333.641 435.937C336.892 432.195 338.581 427.199 340.2 422.33L382.868 293.977C384.004 290.562 385.156 287.109 387.053 284.148C392.237 276.053 402.007 272.956 411.308 271.426ZM320.586 426.841C321.207 427.265 321.831 427.764 322.16 428.464C322.49 429.163 322.415 430.108 321.823 430.485C321.376 430.77 320.788 430.666 320.253 430.555C318.501 430.188 316.75 429.823 314.999 429.456C314.052 429.259 313.078 429.048 312.255 428.473C311.433 427.897 310.799 426.853 310.971 425.872C311.264 424.211 313.378 423.977 314.975 424.351C316.943 424.81 318.857 425.66 320.586 426.841ZM384.854 300.098C383.322 300.198 382.56 301.959 382.079 303.48L366.078 354.052C365.131 357.046 368.551 360.187 371.593 360.302C374.635 360.417 377.317 358.734 380.157 357.798C382.998 356.864 386.714 356.961 388.601 359.646C390.733 362.681 395.074 361.357 397.855 359.429C400.638 357.502 404.208 355.245 407.185 357.312C402.669 359.915 398.153 362.52 393.637 365.123C392.14 365.987 390.537 368.135 391.959 369.349C396.596 369.068 401.064 367.458 404.775 364.733C406.159 365.106 405.764 367.379 404.755 368.337C400.952 371.947 393.949 370.871 391.161 375.429C384.654 386.067 370.302 390.072 358.756 384.471C356.388 383.323 354.481 386.316 353.662 388.798C350.397 398.695 347.133 408.591 343.868 418.488C343.118 420.765 342.357 423.183 342.846 425.635C343.66 429.727 347.531 432.362 351.012 434.459C357.551 438.398 364.2 442.384 371.379 444.296C378.557 446.208 386.467 445.795 392.153 441.406C391.249 439.33 388.024 440.654 386.403 439.118C384.818 437.615 386.414 434.71 388.453 434.665C390.493 434.62 392.307 436.234 393.884 437.747C395.462 435.814 397.104 433.732 397.392 431.12C397.68 428.508 395.959 425.312 393.46 425.156C391.817 425.054 391.757 422.025 393.231 421.372C394.704 420.72 396.449 421.609 397.933 422.475C399.27 416.366 400.606 410.257 401.943 404.148C402.215 402.902 402.487 401.588 402.143 400.312C401.799 399.036 400.609 397.852 399.418 398.067C397.795 398.358 397.052 395.351 398.315 394.289C399.577 393.228 401.473 393.62 403.118 394.059C404.354 388.648 405.128 383.085 405.43 377.455C398.627 378.797 395.822 386.959 393.745 393.924C389.762 407.28 384.598 420.155 378.341 432.335C376.939 435.064 375.424 437.829 373.074 439.658C370.725 441.485 367.326 442.177 364.626 440.526C365.711 438.542 368.133 438.038 370.048 436.974C373.495 435.058 375.424 431.162 377.174 427.462C383.223 414.682 389.326 401.739 392.174 387.545L392.361 386.592C392.89 383.885 393.421 381.139 394.79 378.863C396.319 376.318 399.228 374.482 402.107 375.346C405.143 376.256 406.763 372.083 407.134 368.845C408.415 357.679 409.696 346.513 410.977 335.348C411.386 331.781 411.796 328.181 411.463 324.548C410.235 311.112 397.365 299.286 384.854 300.098ZM403.595 446.764C404.939 447.599 406.011 449.552 405.131 450.783C404.291 451.959 402.499 451.492 401.124 450.924C400.451 450.647 399.737 450.338 399.294 449.721C398.515 448.64 398.991 446.996 400.047 446.4C401.104 445.804 402.494 446.08 403.595 446.764ZM232.592 392.967C233.487 393.465 234.406 394.049 234.935 394.968C235.464 395.887 235.428 397.227 234.611 397.739C233.944 398.158 233.06 397.899 232.282 397.632C231.164 397.247 230.046 396.861 228.927 396.476C228.28 396.253 227.59 396 227.149 395.434C226.207 394.222 227.112 392.336 228.466 391.963C229.818 391.591 231.292 392.242 232.592 392.967ZM147.961 355.795C153.643 360.784 160.3 364.235 166.899 367.574C180.256 374.332 193.706 380.851 207.241 387.13C209.134 388.008 211.215 389.068 212.07 391.073C206.59 389.81 201.384 387.222 196.236 384.657C179.266 376.198 162.296 367.74 145.326 359.282C143.547 358.395 141.384 356.598 142.134 354.79C143.022 352.647 146.149 354.205 147.961 355.795ZM270.729 324.108C269.594 326.489 269.164 329.212 268.709 331.882C265.869 348.552 261.557 364.826 255.849 380.43C254.489 384.149 255.922 388.722 258.515 391.956C261.108 395.188 264.677 397.327 268.227 399.202C276.231 403.428 284.619 406.72 293.177 408.992C296.431 409.856 299.859 410.572 302.978 409.663C305.931 408.801 308.267 406.579 310.388 404.307C319.387 394.663 326.392 382.918 330.849 370.001C307.049 362.616 285.279 345.999 270.729 324.108ZM319.708 408.588C321.22 409.645 322.733 410.702 324.244 411.759C324.75 412.111 325.286 412.506 325.508 413.097C325.882 414.096 325.106 415.154 324.164 415.391C323.222 415.629 322.206 415.291 321.25 414.956C319.509 414.347 317.6 413.601 316.642 411.911C315.685 410.222 316.683 407.512 318.461 407.928C318.911 408.033 319.315 408.314 319.708 408.588ZM404.922 434.859C405.856 435.315 406.839 435.813 407.449 436.704C408.06 437.596 408.098 439.003 407.262 439.524C406.926 439.734 406.51 439.767 406.11 439.789C404.564 439.873 402.88 439.803 401.572 438.798C400.264 437.794 399.693 435.531 400.851 434.515C401.915 433.581 403.585 434.205 404.922 434.859ZM163.227 302.703C162.124 302.893 160.935 303.132 160.229 304.018C159.703 304.678 159.537 305.589 159.389 306.46C157.368 318.337 155.359 330.666 158.251 342.732C159.033 345.99 160.205 349.254 162.271 351.888C163.521 353.483 165.058 354.794 166.583 356.091C169.228 358.342 171.88 360.596 174.698 362.583C181.152 367.135 188.339 370.204 195.463 373.236C198.483 374.523 201.712 375.835 204.783 375.214C208.398 374.484 210.899 371.272 213.021 368.172C224.856 350.882 233.629 331.116 238.803 310.079C239.538 307.09 236.102 304.622 233.251 303.536C210.49 294.87 186.248 298.732 163.227 302.703ZM242.562 310.321C241.804 310.953 241.509 312.02 241.242 313.022C234.957 336.68 224.372 358.727 210.212 377.657C220.45 375.592 229.269 368.206 233.439 358.204C234.873 354.765 235.774 351.074 236.671 347.399C239.497 335.812 242.324 324.224 245.15 312.638C245.299 312.027 245.442 311.349 245.163 310.756C244.702 309.777 243.321 309.687 242.562 310.321ZM234.446 370.137C235.605 370.561 236.603 371.407 237.683 372.051C238.65 372.628 238.649 374.24 237.891 374.99C237.133 375.739 235.952 375.806 234.88 375.64C233.759 375.468 232.603 375.051 231.789 374.164C230.977 373.278 230.626 371.837 231.218 370.872C231.853 369.841 233.286 369.712 234.446 370.137ZM408.675 419.935C409.724 420.507 410.519 421.504 411.281 422.471C411.695 422.996 412.13 423.576 412.166 424.238C412.212 425.082 411.546 425.773 410.787 425.955C410.027 426.137 409.206 425.916 408.446 425.615C407.366 425.188 406.289 424.557 405.614 423.546C404.939 422.533 404.789 421.073 405.513 420.213C406.248 419.341 407.627 419.364 408.675 419.935ZM155.222 303.897C154.808 304.365 154.728 305.067 154.668 305.725L153.245 321.207C152.474 329.609 151.847 338.725 156.089 346.274C157.088 346.103 156.866 344.521 156.47 343.485C153.415 335.495 154.287 326.788 155.211 318.521C155.753 313.676 156.294 308.83 156.837 303.984C156.51 303.391 155.635 303.431 155.222 303.897ZM439.125 423.156C453.996 428.104 468.867 433.052 483.738 438.001C486.013 438.758 488.297 439.518 490.487 440.564C489.667 442.127 487.453 441.793 485.755 441.257C470.793 436.533 455.95 430.973 440.708 428.05C439.405 427.8 438 427.517 437.032 426.503C436.064 425.489 435.946 423.483 437.129 422.979C437.742 422.716 438.465 422.936 439.125 423.156ZM398.676 407.551C398.983 407.764 399.295 407.986 399.518 408.296C400.256 409.329 399.593 410.851 398.53 411.305C397.466 411.758 396.217 411.467 395.06 411.145C393.854 410.809 392.476 410.284 392.003 409.046C391.408 407.491 392.817 405.89 394.344 405.799C395.87 405.708 397.346 406.625 398.676 407.551ZM410.249 407.731C411.611 408.314 412.864 409.239 413.869 410.403C414.638 411.293 414.144 412.789 413.182 413.269C412.221 413.749 411.038 413.497 409.975 413.13C408.901 412.758 407.806 412.242 407.065 411.308C406.325 410.375 406.065 408.928 406.743 408.051C407.515 407.05 409.048 407.217 410.249 407.731ZM266.908 326.129C263.598 338.136 260.731 350.313 258.314 362.624C258.212 363.144 258.401 363.985 258.879 363.845C261.883 353.793 264.437 343.558 266.53 333.184C266.994 330.885 267.435 328.491 266.908 326.129ZM244.524 352.691C245.786 353.184 246.759 354.308 247.645 355.41C247.918 355.749 248.197 356.107 248.301 356.531C248.519 357.408 247.872 358.255 247.08 358.487C246.289 358.72 245.416 358.49 244.604 358.201C242.759 357.54 240.631 355.766 241.234 353.893C241.649 352.6 243.262 352.199 244.524 352.691ZM415.891 396.228C417.031 397.145 418.03 398.934 417.133 399.975C416.526 400.68 415.425 400.537 414.51 400.267C413.447 399.955 412.404 399.54 411.398 399.031C409.982 398.315 410.249 395.832 411.595 395.175C412.94 394.52 414.631 395.215 415.891 396.228ZM566.245 416.649C566.577 417.706 566.36 418.816 566.14 419.862C564.586 427.264 563.031 434.667 561.478 442.07C561.289 442.969 560.951 444.026 560.091 444.165C559.349 444.285 558.608 443.572 558.369 442.785C558.129 441.998 558.261 441.173 558.407 440.39C559.646 433.736 561.733 427.173 561.232 420.274C561.083 418.223 560.924 415.672 562.588 414.776C563.89 414.075 565.759 415.098 566.245 416.649ZM383.884 360.074C377.791 361.92 371.4 363.779 364.985 362.326C363.819 362.062 363.01 363.338 362.542 364.448C360.44 369.446 358.777 374.679 357.577 380.063C357.504 380.393 357.435 380.749 357.563 381.075C357.766 381.593 358.357 381.793 358.865 381.919C363.849 383.154 368.954 384.141 373.924 383.61C378.893 383.081 383.769 380.86 386.606 376.657C389.442 372.453 389.786 366.093 386.644 361.653C385.968 360.698 384.904 359.765 383.884 360.074ZM338.43 368.374C340.062 369.376 341.695 370.378 343.327 371.381C343.937 371.755 344.608 372.209 344.791 372.923C345.007 373.762 344.391 374.573 343.642 374.822C342.891 375.071 342.055 374.906 341.256 374.74C339.99 374.476 338.687 374.197 337.572 373.45C336.458 372.702 335.564 371.362 335.692 370.025C335.82 368.687 337.291 367.675 338.43 368.374ZM118.695 196.333C124.609 201.045 128.274 208.455 129.956 215.952C131.638 223.449 131.537 231.119 131.273 238.669C130.835 251.167 129.943 263.787 126.058 275.321C122.171 286.856 114.947 297.334 104.49 302.341C110.888 304.677 118.671 306.768 123.343 302.152C125.439 300.08 129.064 299.987 131.533 301.94C130.148 299.888 132.011 297.425 133.666 295.87C140.447 289.497 145.85 281.444 149.053 272.317C155.264 254.621 152.901 234.042 147 215.267C143.171 203.086 130.218 194.421 118.695 196.333ZM252.678 338.721C253.902 339.677 253.121 341.887 251.723 342.247C250.323 342.607 248.835 341.798 247.52 341.005C246.906 340.635 246.259 340.223 245.926 339.562C245.148 338.019 246.751 336.302 248.349 336.399C249.945 336.498 251.346 337.679 252.678 338.721ZM318.765 264.611C313.03 262.973 306.884 261.87 301.517 263.895C299.742 264.564 298.037 265.63 297.089 267.343C296.143 269.055 296.146 271.515 297.485 273.099C300.871 277.105 301.416 282.831 301.153 287.986C300.891 293.141 300.018 298.357 301.261 303.469C301.902 306.104 303.083 308.594 304.366 310.997C311.315 324.025 321.562 335.222 333.625 342.97C335.746 344.332 338.322 346.666 337.356 348.922C319.703 339.234 305.225 322.444 297.732 302.967C292.311 312.484 283.929 319.917 274.089 323.928C287.659 343.714 307.343 358.888 328.949 366.217C329.928 366.549 331.05 366.85 331.87 366.293C332.407 365.928 332.686 365.27 332.939 364.642C339.538 348.292 345.265 331.488 350.084 314.331C351.733 308.461 353.288 302.458 353.242 296.204C353.197 289.95 351.365 283.325 347.112 278.664C344.492 275.792 341.137 273.838 337.776 272.121C331.642 268.987 325.266 266.468 318.765 264.611ZM415.162 383.408C416.66 383.867 418.457 384.901 418.407 386.522C418.356 388.137 416.448 388.77 414.927 388.515C413.814 388.329 412.665 387.833 411.948 386.866C411.232 385.9 411.113 384.399 411.905 383.625C412.717 382.833 414.043 383.066 415.162 383.408ZM532.139 386.365C527.123 396.652 523.197 407.558 519.281 418.439C519.086 418.98 518.904 419.635 519.236 420.14C524.655 415.885 529.78 411.226 534.568 406.201C535.04 405.705 535.544 405.022 535.269 404.329C534.645 402.761 534.021 401.193 533.398 399.625C532.935 398.463 532.514 396.987 533.301 396.148C533.94 395.465 535.03 395.613 535.965 395.804L543.643 397.378C543.661 396.866 543.462 396.36 543.268 395.874C541.849 392.327 540.277 388.574 537.311 386.303C535.666 385.044 533.012 384.574 532.139 386.365ZM206.804 164.802C201.102 164.087 194.8 163.93 190.632 167.736C188.299 169.867 186.968 172.971 185.787 176.028C181.144 188.05 177.871 200.759 176.055 213.811C202.136 209.521 230.351 215.806 253.908 231.153C255.906 232.454 258.141 235.233 256.614 236.894C239.252 223.862 218.483 216.369 197.963 215.735C191.323 215.53 184.729 216.023 178.097 215.966C168.24 215.882 158.308 214.579 148.562 212.093C161.064 242.389 156.068 278.782 136.278 301.574C145.509 302.529 154.639 301.179 163.633 299.683C177.062 297.448 190.504 294.872 204.258 295.005C218.014 295.139 232.296 298.169 244.312 306.293C245.718 307.243 247.009 305.227 247.404 303.599L265.738 228.127C268.516 216.694 271.155 203.921 265.69 192.958C260.855 183.257 250.891 177.643 241.303 173.792C230.111 169.296 218.489 166.268 206.804 164.802ZM347.98 358.359C348.291 358.714 348.599 359.138 348.594 359.604C348.582 360.55 347.425 360.802 346.534 360.794C345.241 360.783 343.909 360.762 342.676 360.238C341.443 359.715 340.314 358.566 340.154 357.187C339.995 355.809 341.162 354.42 342.436 354.783C344.522 355.377 346.481 356.641 347.98 358.359ZM536.77 364.971C531.632 366.258 525.948 365.566 520.952 363.046C521.222 365.181 523.993 366.742 523.59 368.799C523.344 370.052 522.037 370.588 521.182 371.447C520.523 372.11 520.115 373.003 519.726 373.882C516.079 382.156 513.181 390.849 511.084 399.813C510.723 401.358 510.675 403.529 512.124 404.151C515.125 405.441 517.651 408.123 518.871 411.315C522.244 402.274 525.617 393.234 528.991 384.194C529.774 382.096 530.555 379.725 529.691 377.532C528.503 374.514 530.678 371.542 532.704 369.356L536.77 364.971ZM255.082 322.516C256.583 323.321 258.078 325.279 257.168 326.647C256.608 327.491 255.425 327.539 254.431 327.293C253.437 327.048 252.445 326.584 251.45 326.668C250.279 326.766 249.208 325.374 249.321 324.132C249.433 322.889 250.471 321.966 251.621 321.756C252.771 321.546 253.995 321.933 255.082 322.516ZM417.749 370.611C418.707 371.056 419.703 371.6 420.274 372.541C420.846 373.483 420.764 374.917 419.863 375.352C419.565 375.495 419.222 375.515 418.888 375.531C417.432 375.601 415.884 375.631 414.565 374.847C413.246 374.063 412.35 372.15 413.119 370.886C414.005 369.428 416.158 369.875 417.749 370.611ZM511.638 378.567C510.538 378.511 509.589 379.19 508.724 379.843L503.512 383.771C502.493 384.538 503.633 386.39 504.873 386.885C506.112 387.381 507.65 387.521 508.358 388.728C509.1 389.992 508.365 391.578 507.364 392.471C506.365 393.364 505.084 393.953 504.354 395.108C503.263 396.835 503.92 399.618 505.697 400.796C506.663 401.435 508.212 401.378 508.45 400.255C509.843 393.694 511.55 387.231 513.564 380.899C513.908 379.818 512.737 378.623 511.638 378.567ZM300.194 317.499C300.877 318.294 301.212 319.335 301.573 320.327C304.679 328.846 311.304 336.071 319.238 339.593C321.074 340.408 323.248 341.326 323.842 343.333C321.694 344.628 318.847 343.521 316.535 342.188C308.337 337.459 301.495 329.844 297.439 320.932C296.791 319.51 296.343 317.512 297.542 316.753C298.353 316.24 299.511 316.703 300.194 317.499ZM512.907 348.97C506.499 348.673 499.968 349.024 494.209 351.558C488.45 354.092 483.528 359.111 482.233 365.674C480.59 373.996 475.006 381.037 467.629 384.084L478.069 388.668C479.292 389.205 480.675 389.745 481.825 389.216C483.508 388.441 483.616 386.001 483.638 383.999C483.66 381.997 484.25 379.521 486.113 379.351C488.429 379.14 489.568 382.78 488.76 385.053C487.953 387.326 486.171 389.206 486.103 391.688C491.022 393.988 495.98 396.174 500.973 398.245C500.136 397.065 500.361 395.383 501.132 394.279C501.902 393.173 503.095 392.512 504.251 391.882C505.483 391.212 504.35 389.022 502.992 388.441C501.634 387.862 499.928 387.711 499.16 386.371C498.206 384.704 499.562 382.812 500.897 381.673C503.49 379.464 506.683 376.823 506.048 373.175C504.496 364.277 507.128 354.995 512.907 348.97ZM283.761 256.011C278.491 277.462 274.177 299.249 270.839 321.279C279.695 319.202 287.108 313.055 292.469 305.498C295.739 300.887 298.394 295.516 298.674 289.565C298.882 285.127 297.759 280.626 296.259 276.341C293.6 268.74 289.602 261.39 283.761 256.011ZM469.982 301.803C472.945 302.124 474.376 306.466 473.282 309.304C472.188 312.141 469.627 313.88 467.469 315.865C464.487 318.609 462.134 322.028 459.804 325.417C454.261 333.484 450.763 343.202 449.732 353.405C449.124 359.412 449.434 365.868 452.325 371.357C455.215 376.847 461.243 380.991 466.769 379.793C471.515 378.765 474.693 374.275 476.676 369.644C478.66 365.014 479.885 359.908 482.682 355.824C487.843 348.29 497.317 345.68 506.308 344.969C494.15 339.371 484.678 326.802 482.318 313.135C481.642 309.215 481.402 304.955 478.989 301.781C476.575 298.606 470.922 298.074 469.982 301.803ZM349.913 339.439C350.758 339.884 351.567 340.415 352.325 341.022C353.577 342.022 354.722 344.082 353.587 345.053C352.968 345.585 352.026 345.384 351.214 345.159C349.732 344.749 348.142 344.269 347.12 343.013C346.098 341.756 346.119 339.479 347.511 338.975C348.275 338.7 349.151 339.037 349.913 339.439ZM417.033 356.033C418.203 356.502 419.354 357.038 420.481 357.635C421.038 357.93 421.631 358.286 421.896 358.885C422.3 359.791 421.716 360.841 420.896 361.214C420.077 361.586 419.112 361.467 418.196 361.341C416.797 361.149 415.309 360.918 414.181 359.947C413.051 358.977 412.549 356.992 413.555 356.036C414.432 355.202 415.863 355.564 417.033 356.033ZM77.6523 245.332C76.645 245.012 76.009 246.314 75.8249 247.377C75.296 250.433 75.2695 253.625 75.7468 256.771C75.9762 257.172 76.4491 256.624 76.4966 256.177L77.6523 245.332ZM270.06 312.344C269.357 312.508 268.924 313.381 269.173 314.132L269.183 314.16L269.167 314.172C269.145 314.187 269.122 314.207 269.096 314.231C268.761 314.554 268.988 315.298 269.453 315.405C269.964 314.515 270.18 313.423 270.06 312.344ZM257.811 304.051C259.113 304.784 260.354 306.42 259.725 307.735C259.309 308.605 258.25 308.868 257.302 308.801C256.355 308.735 255.402 308.429 254.465 308.516C253.276 308.626 252.141 307.296 252.161 306.019C252.18 304.741 253.146 303.696 254.294 303.395C255.442 303.094 256.713 303.434 257.811 304.051ZM306.445 106.487C293.214 171.866 281.341 237.659 270.838 303.803L269.757 310.643L270.243 308.485C271.357 303.434 272.32 298.336 273.282 293.239C284.565 233.494 295.847 173.75 307.129 114.004C307.602 111.503 307.991 108.611 306.445 106.487ZM357.156 324.222C357.873 324.696 358.568 325.295 358.931 326.101C359.295 326.907 359.233 327.957 358.607 328.466C358.001 328.958 357.114 328.816 356.328 328.653L352.973 327.953C352.426 327.838 351.839 327.703 351.429 327.279C351.097 326.935 350.932 326.442 350.906 325.968C350.83 324.537 351.981 323.362 353.287 323.134C354.592 322.906 355.976 323.445 357.156 324.222ZM102.418 192.13C98.2797 194.598 95.5108 198.91 92.9071 203.117C85.6521 214.837 78.4606 227.433 77.9186 241.888C78.5906 242.235 79.1261 241.343 79.3288 240.619C82.9631 227.623 88.1827 215.243 94.8234 203.869C97.3572 199.529 100.221 195.211 104.401 192.684C104.531 191.797 103.139 191.7 102.418 192.13ZM517.322 349.254C516.694 349.225 516.188 349.696 515.763 350.153C511.755 354.474 509.113 360.215 508.293 366.385C507.954 368.932 508.138 372.041 510.184 373.632C512.368 372.366 514.553 371.101 516.737 369.835C517.084 369.634 517.44 369.425 517.677 369.091C518.27 368.256 517.919 367.014 517.577 365.965C515.887 360.782 515.079 354.621 518.178 350.636C518.564 350.14 517.95 349.283 517.322 349.254ZM556.162 355.127C555.84 355.196 555.563 355.388 555.295 355.578C548.652 360.27 542.158 365.186 535.823 370.319C534.5 371.391 533.097 372.626 532.841 374.417C532.612 376.01 533.389 377.695 534.498 378.908C535.608 380.121 537.019 380.95 538.405 381.759C538.776 381.976 539.181 382.2 539.583 382.142C539.953 382.088 540.238 381.807 540.5 381.539C544.594 377.336 548.752 373.044 551.383 367.632C551.944 366.478 553.157 365.923 554.18 365.22C556.188 363.84 557.649 361.633 558.219 359.119C558.413 358.268 558.5 357.334 558.168 356.491C557.835 355.646 556.97 354.952 556.162 355.127ZM420.645 340.361C421.344 340.777 422.098 341.318 422.283 342.134C422.61 343.571 420.974 344.467 419.61 344.49C418.552 344.508 417.424 344.282 416.561 343.557C415.698 342.832 415.199 341.515 415.631 340.52C416.398 338.754 418.95 339.352 420.645 340.361ZM262.16 289.066C262.442 289.498 262.687 289.98 262.723 290.489C262.797 291.513 261.955 292.361 261.011 292.484C260.067 292.608 259.089 292.15 258.293 291.512C257.455 290.842 256.713 289.822 256.806 288.758C256.912 287.543 258.152 286.771 259.308 286.944C260.464 287.116 261.477 288.018 262.16 289.066ZM363.508 309.023C364.326 309.678 364.131 311.12 363.355 311.708C362.581 312.296 361.498 312.24 360.518 312.032C359.538 311.822 358.549 311.482 357.575 311.575C356.077 311.718 354.929 309.515 355.566 308.103C356.203 306.691 357.95 306.226 359.447 306.606C360.945 306.987 362.253 308.019 363.508 309.023ZM422.239 324.534C423.495 324.986 424.679 325.717 425.688 326.664C426.126 327.074 426.561 327.59 426.588 328.189C426.642 329.424 425.105 329.791 423.944 329.674C422.916 329.571 421.889 329.383 420.877 329.112C419.626 328.779 418.18 328.072 417.929 326.731C417.733 325.69 418.431 324.7 419.336 324.355C420.241 324.011 421.286 324.191 422.239 324.534ZM521.273 264.857C513.616 263.845 505.971 262.61 498.348 261.153C492.825 260.097 487.086 261.745 483.1 265.531C482.281 266.309 481.538 267.722 482.378 268.609C485.762 266.164 489.937 264.906 494.176 265.057C495.691 265.11 497.306 265.38 498.533 266.424C499.759 267.469 500.373 269.5 499.474 270.723C498.091 272.602 495.211 271.08 492.968 270.241C486.728 267.909 479.722 273.797 480.548 280.68C483.233 275.17 491.905 275.069 495.677 280.353C499.451 285.636 497.152 294.01 491.568 295.964C489.723 296.609 487.489 296.771 486.369 298.428C485.41 299.85 485.646 301.858 485.921 303.667C486.352 306.508 486.783 309.348 487.214 312.188C488.118 318.143 489.106 324.33 492.347 329.455C494.838 333.397 498.498 336.406 502.389 338.703C516.416 346.985 534.292 346.075 546.268 336.468C547.229 335.698 548.76 337.173 548.637 338.481C548.514 339.789 547.453 340.675 546.44 341.369C541.227 344.936 535.128 347.116 528.786 347.68C525.787 347.947 522.248 348.144 520.792 350.855C519.585 353.1 520.516 356.272 522.386 358.202C524.257 360.134 526.833 361.035 529.334 361.502C534.322 362.433 539.445 361.88 543.958 359.922C545.326 359.329 546.69 358.564 547.508 357.269C548.282 356.043 548.48 354.486 548.659 352.985L548.811 351.694C549.466 346.092 549.999 340.385 548.885 334.739C548.348 332.023 547.436 329.353 547.191 326.612C546.89 323.233 547.623 319.93 547.645 316.561C547.666 313.192 546.754 309.408 544.096 307.352C545.274 305.555 547.443 304.86 549.037 303.478C550.632 302.096 551.439 299.079 549.655 297.69C548.802 297.026 547.676 297.031 546.692 297.241C542.541 298.127 539.515 302.473 539.856 307.055C540.079 310.046 535.541 310.622 533.639 308.275C531.737 305.929 531.829 302.596 531.964 299.629C532.488 288.123 531.462 275.234 523.703 266.507C523.024 265.744 522.224 264.983 521.273 264.857ZM265.316 269.478C266.415 270.238 267.366 271.706 266.862 272.902C266.385 274.032 264.947 274.19 263.748 274.044C262.048 273.837 259.977 272.848 259.856 271.037C259.741 269.313 261.644 268.276 263.255 268.583C263.98 268.721 264.684 269.041 265.316 269.478ZM459.306 304.392C457.984 305.146 457.131 306.538 456.326 307.88C454.511 310.91 452.66 314.032 452.063 317.643C451.679 319.968 449.98 321.648 448.642 323.464C447.305 325.281 446.264 327.812 447.336 329.999C451.358 328.043 453.205 323.248 454.89 318.887C456.905 313.672 459.284 308.356 463.555 305.104C462.566 303.758 460.629 303.639 459.306 304.392ZM366.276 292.242C367.094 292.805 367.968 293.698 367.782 294.666C367.557 295.842 366.066 295.959 364.919 295.833C364.344 295.77 363.77 295.707 363.194 295.644C361.73 295.482 360.166 295.28 358.978 294.274C357.791 293.267 357.294 291.152 358.395 290.212C359.106 289.604 360.168 289.703 361.105 289.926C362.92 290.357 364.684 291.147 366.276 292.242ZM241.492 236.174C242.877 237.417 244.294 239.462 243.379 240.972C228.221 232.5 210.874 229.106 194.593 231.429C187.266 232.473 180.149 234.639 172.716 234.986C170.174 235.105 167.454 234.962 165.213 233.467C162.973 231.972 161.517 228.707 162.729 226.409C163.867 224.252 166.608 223.899 168.996 223.791C180.761 223.259 192.599 223.377 204.444 224.141C217.368 224.975 231.247 226.995 241.492 236.174ZM469.779 305.643C468.644 305.292 467.513 305.87 466.585 306.535C464.333 308.149 462.517 310.355 461.01 312.76C459.139 315.746 457.716 319.07 456.803 322.58C461.293 317.678 465.981 312.982 470.855 308.509C471.701 307.733 470.913 305.994 469.779 305.643ZM447.495 310.016C447.183 309.923 446.852 309.835 446.553 309.929C445.881 310.141 445.777 311.081 445.809 311.844C445.907 314.261 446.232 316.687 446.776 319.072C447.959 316.306 449.478 313.723 451.287 311.404C450.045 310.863 448.777 310.4 447.495 310.016ZM199.952 226.399C189.927 226.547 179.902 226.696 169.879 226.845C168.681 226.862 167.264 227.021 166.779 228.151C167.307 229.55 168.663 230.49 170.029 230.835C171.394 231.179 172.787 231.028 174.149 230.876C184.525 229.715 194.9 228.555 205.275 227.394C203.672 226.377 201.754 226.372 199.952 226.399ZM298.119 262.218C297.427 262.98 296.296 263.047 295.373 263.468C294.45 263.891 293.697 265.176 294.406 266.031C295.952 265.087 297.498 264.143 299.044 263.2C298.85 262.779 298.516 262.423 298.119 262.218ZM397.539 291.81C404.226 294.642 411.05 297.129 418.027 298.603C419.832 298.985 421.967 299.557 422.714 301.377C421.099 302.384 418.977 301.918 417.065 301.424C409.889 299.572 402.714 297.72 395.538 295.867C394.138 295.506 392.419 294.785 392.248 293.276C392.113 292.087 393.162 291.142 394.261 291.017C395.361 290.892 396.476 291.36 397.539 291.81ZM504.866 316.279C506.093 318.887 506.094 322.029 504.87 324.443C504.569 325.039 504.191 325.599 503.687 326.007C502.364 327.076 500.36 326.9 498.802 325.989C497.246 325.078 496.063 323.558 495.051 321.994C494.008 320.383 493.08 318.626 492.806 316.74C492.533 314.854 493.026 312.811 494.411 311.739C495.553 310.856 497.13 310.745 498.581 311.073C501.221 311.667 503.639 313.671 504.866 316.279ZM273.312 250.794C273.853 251.545 273.51 252.658 272.819 253.143C272.127 253.629 271.22 253.649 270.361 253.613C269.347 253.57 268.295 253.457 267.379 252.922C266.462 252.388 265.717 251.33 265.808 250.265C265.939 248.72 267.673 248.009 269.143 248.208C270.746 248.426 272.3 249.389 273.312 250.794ZM497.193 314.463C496.269 315.221 496.385 317.135 497.525 317.661C498.842 318.269 499.595 320.079 499.089 321.425C498.691 322.481 499.796 323.802 500.891 323.783C501.985 323.763 502.824 322.742 503.03 321.612C503.236 320.483 502.936 319.28 502.547 318.158C502.118 316.922 501.54 315.671 500.561 314.834C499.584 313.997 498.117 313.704 497.193 314.463ZM514.078 212.719C503.833 211.596 493.149 213.113 485.141 219.266C477.134 225.418 472.467 236.859 475.588 247.469C476.69 251.218 478.802 254.839 481.944 256.999C485.087 259.16 489.335 259.572 492.167 257.401C495.38 254.939 499.9 259.621 503.992 259.563C509.652 259.483 515.377 260.181 520.979 261.635C522.308 261.979 523.667 262.385 524.795 263.259C526.018 264.206 526.852 265.611 527.651 266.974C530.42 271.705 533.24 276.564 534.363 281.904C536.144 290.373 533.474 299.221 536.223 307.465C537.6 303.242 538.978 299.02 540.355 294.797C540.867 293.23 541.411 291.607 542.531 290.486C543.651 289.364 545.526 288.91 546.882 289.916C549.273 291.691 551.757 293.57 553.184 296.264C554.611 298.958 554.578 302.713 552.343 304.36C550.184 305.951 551.52 309.612 551.905 312.506C552.573 317.519 549.65 322.122 549.954 327.146C550.206 331.307 552.613 335.092 554.93 338.619C555.607 339.651 556.413 340.776 557.548 341.009C558.498 341.206 559.396 340.708 560.179 340.185C564.847 337.069 568.553 332.441 570.727 327.011C571.604 324.82 571.52 321.213 569.223 320.847C570.965 315.479 576.623 313.188 580.455 309.346C584.587 305.202 586.593 299.167 587.962 293.183C589.337 287.169 590.112 280.413 587.167 274.714C583.63 267.868 574.691 264.707 568.601 268.152C567.083 269.01 565.081 270.147 563.756 268.785C565.39 266.931 567.023 265.076 568.657 263.222C571.319 260.199 574.048 257.058 575.278 253.065C577.704 245.185 573.355 235.696 566.621 230.609C559.889 225.523 551.39 224.186 543.484 224.737C541.504 224.876 539.025 225.716 539.121 227.844C539.177 229.078 540.146 230.107 540.507 231.304C540.732 232.051 540.655 232.245 540.148 232.638C539.842 232.876 539.221 233.646 538.865 233.35C535.731 227.048 532.304 220.407 526.594 216.643C522.809 214.147 518.389 213.192 514.078 212.719ZM445.7 302.078C445.246 301.598 444.294 301.083 444.264 301.735C444.235 303.345 445.318 304.88 446.64 305.779C447.963 306.678 449.5 307.064 451.001 307.433C451.588 307.577 452.217 307.72 452.754 307.492C453.204 307.301 453.515 306.881 453.807 306.476C454.307 305.781 454.808 305.087 455.308 304.393C452.932 301.676 448.175 304.695 445.7 302.078ZM367.124 272.564C368.265 273.009 369.373 273.572 370.426 274.242C371.339 274.823 372.333 275.757 372.167 276.823C371.948 278.226 370.11 278.265 368.763 277.981C367.393 277.691 366.023 277.403 364.653 277.114C363.655 276.903 362.537 276.61 361.959 275.69C361.182 274.455 361.945 272.752 363.163 272.232C364.382 271.711 365.827 272.059 367.124 272.564ZM398.645 281.866C404.895 284.73 411.373 286.937 417.944 288.443C418.715 288.62 419.552 288.827 420.085 289.471C420.619 290.116 420.535 291.332 419.782 291.476C419.553 291.52 419.311 291.458 419.079 291.397C411.187 289.315 403.296 287.235 395.404 285.154C394.685 284.964 393.898 284.728 393.446 284.083C392.637 282.929 393.573 281.273 394.83 280.985C396.085 280.698 397.413 281.303 398.645 281.866ZM462.471 294.272C459.943 293.651 457.35 293.116 454.836 293.425C452.322 293.732 449.863 295.006 448.662 297.309C448.418 297.777 448.239 298.388 448.54 298.861C448.776 299.229 449.214 299.367 449.613 299.472C453.799 300.568 458.065 301.184 462.309 301.305C464.417 301.365 467.096 300.774 467.262 298.552C467.349 297.382 466.598 296.217 465.647 295.531C464.695 294.845 463.57 294.543 462.471 294.272ZM174.182 205.945C173.335 208.027 172.777 210.259 172.53 212.555C172.928 213.295 173.839 212.365 173.956 211.559C174.226 209.719 174.301 207.833 174.182 205.945ZM308.426 244.058C322.679 249.13 336.933 254.202 351.186 259.274C352.517 259.748 354.192 260.83 353.827 262.207C351.874 262.835 349.707 261.92 347.73 261.055C335.219 255.578 322.284 251.401 309.182 248.606C308.052 248.366 306.852 248.1 305.969 247.265C305.085 246.43 304.735 244.816 305.573 244.061C306.306 243.401 307.461 243.714 308.426 244.058ZM273.848 231.829C274.461 232.122 275.085 232.496 275.45 233.102C276.285 234.487 275.224 236.312 273.802 236.698C272.38 237.083 270.836 236.496 269.403 235.919C267.832 235.286 267.824 232.619 269.134 231.671C270.444 230.722 272.31 231.093 273.848 231.829ZM325.598 241.719C348.796 250.149 371.992 258.579 395.189 267.009C396.431 267.461 397.991 268.473 397.657 269.765C393.642 269.312 389.653 268.009 385.995 265.954L388.778 270.057C386.936 270.632 384.981 271.208 383.051 270.666C381.122 270.125 379.332 268.007 379.795 266.019C380.862 265.847 381.929 265.675 382.996 265.504C364.394 258.024 345.483 251.595 326.378 246.254C325.275 245.946 324.102 245.599 323.301 244.702C322.499 243.805 322.335 242.167 323.269 241.582C323.937 241.164 324.824 241.436 325.598 241.719ZM476.81 291.352C475.955 291.143 475.118 291.51 474.349 291.87C473.437 292.296 472.526 292.723 471.614 293.15C470.659 293.596 469.609 294.158 469.338 295.24C469.191 295.827 469.48 296.666 470.063 296.702C470.226 296.712 470.381 296.655 470.53 296.599C472.658 295.8 474.785 295.002 476.913 294.204C477.347 294.042 477.814 293.849 478.031 293.422C478.428 292.638 477.665 291.562 476.81 291.352ZM507.036 292.995C506.705 295.005 505.381 296.579 504.647 298.434C503.912 300.289 504.044 302.978 505.804 304.001C506.323 304.304 506.315 305.169 505.907 305.565C505.498 305.96 504.872 305.994 504.298 305.93C502.515 305.732 500.599 304.536 500.142 302.67C499.912 301.736 500.074 300.78 500.238 299.861C500.675 297.4 501.112 294.94 501.55 292.48C501.848 290.798 502.446 288.797 504.046 288.569C505.952 288.299 507.367 290.985 507.036 292.995ZM479.266 296.285C478.894 296.347 478.586 296.658 478.51 297.049L478.421 297.047C478.52 297.539 479.182 297.813 479.525 297.504C479.869 297.194 479.714 296.465 479.266 296.285ZM478.63 282.535C477.849 282.319 476.952 282.201 476.359 282.715C475.726 283.264 475.716 284.351 476.079 285.194C476.443 286.037 477.095 286.707 477.691 287.396C480.2 290.297 481.934 293.937 482.606 297.717C483.789 296.729 484.971 295.741 486.152 294.753C487.036 294.016 487.984 293.152 488.079 291.928C488.148 291.042 487.745 290.157 487.287 289.371C485.344 286.038 482.139 283.507 478.63 282.535ZM185.148 172.09C184.045 171.852 183.223 172.953 182.662 173.928C181.807 175.414 180.952 176.901 180.098 178.387C179.164 180.011 178.222 181.654 177.683 183.492C177.326 184.71 177.151 185.992 176.978 187.269C176.437 191.254 175.896 195.24 175.356 199.225C175.251 199.995 175.589 201.207 176.274 200.962C178.058 190.904 181.047 181.181 185.148 172.09ZM489.041 280.108C487.977 280.2 486.791 280.569 486.426 281.616C486.061 282.663 487.392 284.145 488.173 283.418C489.17 282.492 490.949 283.678 491.325 285.111C491.701 286.545 491.212 287.981 490.917 289.384C490.621 290.785 490.602 292.491 491.634 293.537C492.213 291.718 492.793 289.899 493.372 288.08C494.087 285.835 494.659 282.954 492.938 281.222C491.909 280.186 490.393 279.993 489.041 280.108ZM520.877 288.698C522.46 289.26 524.048 290.363 524.637 292.029C525.226 293.696 524.295 295.847 522.663 295.827C520.334 295.799 518.938 291.936 516.625 292.083C515.179 292.176 513.947 293.897 512.603 293.186C511.77 292.746 511.51 291.511 511.868 290.657C512.225 289.803 513.021 289.275 513.832 288.912C515.993 287.947 518.543 287.869 520.877 288.698ZM276.471 212.343C277.959 213.074 279.108 215.296 278.013 216.44C277.705 216.761 277.278 216.926 276.846 217.02C275.778 217.255 274.556 217.073 273.658 216.31C272.76 215.546 272.306 214.138 272.797 213.121C273.417 211.844 275.171 211.705 276.471 212.343ZM525.585 278.648C526.431 280.025 526.853 282.26 525.484 282.791C524.036 283.353 522.857 281.298 521.863 279.913C520.753 278.364 519.036 277.307 517.27 277.081C516.14 276.939 515.011 277.12 513.883 276.952C512.755 276.783 511.535 276.133 511.136 274.978C510.717 273.767 511.409 272.445 512.437 271.896C513.463 271.348 514.721 271.417 515.899 271.659C519.762 272.453 523.385 275.068 525.585 278.648ZM278.941 199.938C279.769 200.806 280.001 202.328 279.27 203.172C278.303 204.287 276.484 203.712 275.152 202.918C274.672 202.632 274.174 202.296 273.924 201.776C273.327 200.534 274.542 199.245 275.777 199.01C276.864 198.803 278.113 199.07 278.941 199.938Z" fill="black"/>
<path fill-rule="evenodd" clip-rule="evenodd" d="M124.768 294.712C124.82 295.127 124.854 295.583 124.631 295.905C124.232 296.483 123.363 296.246 122.68 296.031C117.874 294.521 112.518 297.474 111.155 302.386C111.011 302.905 110.264 302.935 109.863 302.552C109.462 302.169 109.338 301.568 109.285 301.014C108.986 297.896 110.203 294.873 112.137 292.689C114.072 290.504 116.665 289.083 119.37 288.097C120.419 287.715 121.687 287.427 122.635 288.169C123.26 288.661 123.568 289.477 123.806 290.253C124.253 291.714 124.575 293.209 124.768 294.712ZM122.087 293.289C121.939 291.804 120.318 290.794 118.936 290.88C117.554 290.966 116.386 291.821 115.289 292.648C114.249 293.432 113.152 294.298 112.78 295.615C115.493 293.841 118.789 293.017 122.087 293.289Z" fill="#2B6A66"/>
</svg>
